<svg width="180" height="174" viewBox="0 0 180 174" fill="none" xmlns="http://www.w3.org/2000/svg">
<path d="M140.001 63.162H152.7L152.115 56.0543C151.972 54.3197 150.915 52.7785 149.318 51.9757L145.974 50.2943C144.251 49.4282 143.168 47.7096 143.161 45.8331C145.016 44.4387 146.45 42.0415 147.098 39.51C147.142 39.5171 147.185 39.521 147.23 39.521C147.925 39.521 148.488 38.6167 148.493 37.8271C148.795 37.4881 148.991 36.9833 148.991 36.5186C148.991 35.7265 148.425 35.0845 147.727 35.0845C147.602 35.0845 147.482 35.1057 147.368 35.144C147.368 35.1438 147.368 35.1435 147.368 35.1433H147.369C147.369 35.1433 148.15 34.5075 147.851 31.8752C147.553 29.2429 145.965 28.2334 145.965 28.2334C146.691 27.5844 145.965 26.5747 145.965 26.5747C145.05 27.3679 137.108 26.2862 135.541 26.5747C133.975 26.8631 132.856 28.2334 131.961 30.5412C131.293 32.2608 131.621 34.2202 131.831 35.1073C131.759 35.0932 131.687 35.0845 131.612 35.0845C130.914 35.0845 130.348 35.7265 130.348 36.5186C130.348 36.9833 130.544 37.4881 130.846 37.8271C130.851 38.6167 131.415 39.521 132.11 39.521C132.187 39.521 132.262 39.5082 132.335 39.4874C132.981 42.0272 134.418 44.4345 136.278 45.8331C136.271 47.7096 135.188 49.4282 133.465 50.2943L130.121 51.9757C128.524 52.7785 127.467 54.3197 127.324 56.0543L126.739 63.162H139.438H140.001Z" fill="white"/>
<path d="M40.7648 63.162H53.4634L52.8786 56.0543C52.7359 54.3197 51.6791 52.7785 50.0821 51.9757L46.7374 50.2943C45.0144 49.4282 43.9319 47.7096 43.925 45.8331C45.7794 44.4387 47.2135 42.0415 47.8622 39.51C47.9054 39.5171 47.9491 39.521 47.9934 39.521C48.6884 39.521 49.2518 38.6167 49.2568 37.8271C49.5589 37.4881 49.7547 36.9833 49.7547 36.5186C49.7547 35.7265 49.1888 35.0845 48.4909 35.0845C48.366 35.0845 48.2458 35.1057 48.132 35.144C48.132 35.1438 48.132 35.1435 48.1318 35.1433H48.1334C48.1334 35.1433 48.9137 34.5075 48.6153 31.8752C48.3169 29.2429 46.7296 28.2334 46.7296 28.2334C47.4552 27.5844 46.7296 26.5747 46.7296 26.5747C45.8138 27.3679 37.8724 26.2862 36.3056 26.5747C34.7389 26.8631 33.6199 28.2334 32.7247 30.5412C32.0576 32.2608 32.3847 34.2202 32.5948 35.1073C32.5238 35.0932 32.4511 35.0845 32.3766 35.0845C31.6786 35.0845 31.1126 35.7265 31.1126 36.5186C31.1126 36.9833 31.3083 37.4881 31.6105 37.8271C31.6154 38.6167 32.179 39.521 32.8739 39.521C32.9508 39.521 33.0257 39.5082 33.0988 39.4874C33.7448 42.0272 35.1819 44.4345 37.0418 45.8331C37.035 47.7096 35.9527 49.4282 34.2295 50.2943L30.8848 51.9757C29.2878 52.7785 28.231 54.3197 28.0883 56.0543L27.5029 63.162H40.2016H40.7648Z" fill="white"/>
<path d="M38.2336 67.512V71.9577C38.2336 76.0345 41.6644 79.3527 45.8836 79.3527H61.0954V75.0027H45.8836C44.1466 75.0027 42.7336 73.6368 42.7336 71.9577V67.512H38.2336Z" fill="white"/>
<path d="M142.002 71.9577V67.512H137.502V71.9577C137.502 73.6368 136.089 75.0027 134.352 75.0027H119.415V79.3527H134.352C138.569 79.3527 142.002 76.0345 142.002 71.9577Z" fill="white"/>
<path d="M149.318 136.188L145.973 134.506C144.25 133.64 143.168 131.921 143.161 130.045C145.015 128.651 146.449 126.254 147.098 123.722C147.142 123.729 147.185 123.733 147.23 123.733C147.925 123.733 148.488 122.829 148.493 122.039C148.795 121.7 148.991 121.195 148.991 120.73C148.991 119.938 148.425 119.296 147.727 119.296C147.602 119.296 147.482 119.318 147.368 119.356C147.368 119.356 147.368 119.355 147.368 119.355H147.369C147.369 119.355 148.15 118.719 147.851 116.087C147.553 113.455 145.966 112.445 145.966 112.445C146.691 111.796 145.966 110.787 145.966 110.787C145.05 111.58 137.108 110.498 135.542 110.787C133.975 111.075 132.856 112.445 131.961 114.753C131.294 116.472 131.621 118.432 131.831 119.319C131.76 119.305 131.687 119.296 131.613 119.296C130.915 119.296 130.349 119.938 130.349 120.73C130.349 121.195 130.544 121.7 130.847 122.039C130.851 122.829 131.415 123.733 132.11 123.733C132.187 123.733 132.262 123.72 132.335 123.699C132.981 126.239 134.418 128.646 136.278 130.045C136.271 131.921 135.189 133.64 133.466 134.506L130.121 136.187C128.524 136.99 127.467 138.531 127.324 140.266L126.74 147.374H139.438H140.001H152.7L152.115 140.266C151.972 138.531 150.915 136.99 149.318 136.188Z" fill="white"/>
<path d="M50.0819 136.188L46.7372 134.506C45.0142 133.64 43.9317 131.921 43.9249 130.045C45.7792 128.651 47.2133 126.254 47.862 123.722C47.9052 123.729 47.9489 123.733 47.9932 123.733C48.6882 123.733 49.2518 122.829 49.2566 122.039C49.5587 121.7 49.7545 121.195 49.7545 120.73C49.7545 119.938 49.1886 119.296 48.4906 119.296C48.3658 119.296 48.2454 119.318 48.1316 119.356C48.1316 119.356 48.1316 119.355 48.1315 119.355H48.1329C48.1329 119.355 48.9132 118.719 48.6148 116.087C48.3163 113.455 46.7291 112.445 46.7291 112.445C47.4545 111.796 46.7291 110.787 46.7291 110.787C45.8132 111.58 37.8718 110.498 36.3051 110.787C34.7384 111.075 33.6193 112.445 32.7242 114.753C32.0571 116.472 32.3842 118.432 32.5942 119.319C32.5231 119.305 32.4506 119.296 32.3761 119.296C31.678 119.296 31.1121 119.938 31.1121 120.73C31.1121 121.195 31.3078 121.7 31.61 122.039C31.6148 122.829 32.1784 123.733 32.8734 123.733C32.9503 123.733 33.0251 123.72 33.0982 123.699C33.7442 126.239 35.1814 128.646 37.0413 130.045C37.0345 131.921 35.9521 133.64 34.229 134.506L30.8842 136.187C29.2873 136.99 28.2305 138.531 28.0877 140.266L27.5029 147.374H40.2016H40.7646H53.4632L52.8784 140.266C52.7357 138.531 51.6789 136.99 50.0819 136.188Z" fill="white"/>
<path d="M139.962 106.552C140.637 106.594 141.321 106.638 141.969 106.672V101.941C141.969 97.8628 138.537 94.5464 134.319 94.5464H119.415V98.8964H134.319C136.056 98.8964 137.469 100.262 137.469 101.941V106.411C138.225 106.443 139.077 106.497 139.962 106.552Z" fill="white"/>
<path d="M38.2012 101.941V106.41C38.9662 106.441 39.8284 106.495 40.7266 106.552C41.389 106.594 42.064 106.638 42.7012 106.671V101.941C42.7012 100.262 44.1142 98.8964 45.8512 98.8964H61.0954V94.5464H45.8512C41.632 94.5464 38.2012 97.8628 38.2012 101.941Z" fill="white"/>
<path d="M144.979 79.5368C141.498 79.5368 138.556 81.7643 137.593 84.825H114.915V68.382C114.915 65.4988 112.498 63.162 109.515 63.162H92.5054V40.994C95.6716 40.0628 97.976 37.2188 97.976 33.8538C97.976 29.7319 94.5194 26.3906 90.2554 26.3906C85.9914 26.3906 82.5349 29.7319 82.5349 33.8538C82.5349 37.2189 84.8392 40.063 88.0054 40.994V63.162H70.9954C68.0128 63.162 65.5954 65.4988 65.5954 68.382V84.825H42.4076C41.4443 81.7643 38.5022 79.5368 35.0212 79.5368C30.7571 79.5368 27.3006 82.8783 27.3006 87C27.3006 91.1219 30.7573 94.4632 35.0212 94.4632C38.5024 94.4632 41.4445 92.2356 42.4076 89.175H65.5956V105.618C65.5956 108.501 68.013 110.838 70.9956 110.838H74.7702L75.303 104.353C75.4596 102.439 76.5378 100.722 78.1974 99.7002L86.0346 110.838H88.0056V133.006C84.8394 133.937 82.535 136.781 82.535 140.146C82.535 144.268 85.9916 147.61 90.2556 147.61C94.5196 147.61 97.9762 144.268 97.9762 140.146C97.9762 136.781 95.6718 133.937 92.5056 133.006V110.838H94.4766L102.314 99.7002C103.973 100.722 105.052 102.439 105.208 104.353L105.741 110.838H109.516C112.498 110.838 114.916 108.501 114.916 105.618V89.175H137.593C138.556 92.2356 141.498 94.4632 144.979 94.4632C149.243 94.4632 152.7 91.1219 152.7 87C152.7 82.8781 149.243 79.5368 144.979 79.5368ZM100.839 82.3646C100.834 83.3164 100.154 84.4074 99.3148 84.4074C99.2626 84.4074 99.2086 84.4022 99.1564 84.3935C98.3752 87.4472 96.6436 90.3408 94.408 92.0216C94.4152 94.2854 95.722 96.3594 97.7992 97.4035L98.3068 97.6592L91.8502 106.836L90.2554 109.103L88.6606 106.836L82.204 97.6592L82.7116 97.4035C84.7888 96.3594 86.0956 94.2854 86.1028 92.0216C83.86 90.3356 82.1266 87.4315 81.3472 84.3674C81.259 84.3917 81.169 84.4074 81.0754 84.4074C80.2366 84.4074 79.558 83.3164 79.5508 82.3646C79.1872 81.9557 78.9514 81.3467 78.9514 80.7847C78.9514 79.8294 79.6336 79.0551 80.476 79.0551C80.566 79.0551 80.6524 79.0656 80.7388 79.083C80.485 78.0129 80.0908 75.6482 80.8954 73.5741C81.9754 70.7901 83.3254 69.1371 85.2154 68.7891C87.1054 68.4411 96.685 69.7461 97.7902 68.7891C97.7902 68.7891 98.665 70.0071 97.7902 70.7901C97.7902 70.7901 99.7054 72.0081 100.065 75.1836C100.416 78.2756 99.5326 79.0847 99.4858 79.1247C99.6208 79.0812 99.7666 79.0551 99.916 79.0551C100.757 79.0551 101.441 79.8294 101.441 80.7847C101.441 81.3467 101.205 81.9557 100.839 82.3646Z" fill="white"/>
</svg>
