<svg width="180" height="174" viewBox="0 0 180 174" fill="none" xmlns="http://www.w3.org/2000/svg">
<path d="M164.46 84.1507C162.945 80.6128 159.697 79.7645 157.5 79.5615V58C157.5 50.0033 150.772 43.5 142.5 43.5H97.5V33.4225C99.7875 31.436 101.25 28.5795 101.25 25.375C101.25 22.4908 100.065 19.7247 97.9549 17.6852C95.8452 15.6458 92.9837 14.5 90 14.5C87.0163 14.5 84.1548 15.6458 82.0451 17.6852C79.9353 19.7247 78.75 22.4908 78.75 25.375C78.75 28.5795 80.2125 31.436 82.5 33.4225V43.5H37.5C29.2275 43.5 22.5 50.0033 22.5 58V79.7282L21.885 79.7718C19.9948 79.9037 18.2263 80.7224 16.9351 82.0633C15.6439 83.4043 14.9258 85.168 14.925 87V101.5C14.925 103.423 15.7152 105.267 17.1217 106.627C18.5282 107.986 20.4359 108.75 22.425 108.75H22.5V145C22.5 152.997 29.2275 159.5 37.5 159.5H142.5C150.772 159.5 157.5 152.997 157.5 145V108.75C159.489 108.75 161.397 107.986 162.803 106.627C164.21 105.267 165 103.423 165 101.5V87.4495C165.086 86.3243 164.902 85.1952 164.46 84.1507ZM37.5 145V58H142.5L142.507 86.971L142.5 87V101.5L142.507 101.536L142.515 145H37.5Z" fill="white"/>
<path d="M63.75 101.5C69.9632 101.5 75 95.0081 75 87C75 78.9919 69.9632 72.5 63.75 72.5C57.5368 72.5 52.5 78.9919 52.5 87C52.5 95.0081 57.5368 101.5 63.75 101.5Z" fill="white"/>
<path d="M116.25 101.5C122.463 101.5 127.5 95.0081 127.5 87C127.5 78.9919 122.463 72.5 116.25 72.5C110.037 72.5 105 78.9919 105 87C105 95.0081 110.037 101.5 116.25 101.5Z" fill="white"/>
<path d="M60 116H120V130.5H60V116Z" fill="white"/>
</svg>
