<svg width="180" height="174" viewBox="0 0 180 174" fill="none" xmlns="http://www.w3.org/2000/svg">
<path d="M90 62.1363C94.913 62.1363 98.8958 58.2863 98.8958 53.537C98.8958 48.7878 94.913 44.9377 90 44.9377C85.087 44.9377 81.1042 48.7878 81.1042 53.537C81.1042 58.2863 85.087 62.1363 90 62.1363Z" fill="white"/>
<path d="M98.6874 123.769C96.6574 123.09 94.9289 121.761 93.7895 120L97.9153 85.0631C97.9153 84.9761 97.9153 84.8983 97.9153 84.8159C97.9153 84.7334 97.9532 84.6785 97.9626 84.6052C98.2144 82.5054 97.7211 80.3852 96.5637 78.5917C95.4063 76.7983 93.6532 75.4378 91.5916 74.733C90.8982 74.508 90.1821 74.3545 89.4553 74.2751C87.5273 74.054 85.5753 74.4019 83.8557 75.273C82.1361 76.1442 80.7294 77.4979 79.8205 79.1563C80.325 79.2267 80.8215 79.3432 81.3032 79.5043C83.3219 80.1976 85.0449 81.5201 86.2011 83.2636L82.0184 118.668C81.7648 120.761 82.2518 122.876 83.4 124.668C84.5483 126.46 86.2902 127.823 88.3421 128.536C88.3847 128.586 88.3895 128.536 88.3895 128.536C89.0829 128.761 89.799 128.914 90.5258 128.994C92.4538 129.215 94.4061 128.868 96.1258 127.996C97.8455 127.125 99.2521 125.771 100.161 124.112C99.6594 124.043 99.1662 123.928 98.6874 123.769Z" fill="white"/>
</svg>
