<svg width="168" height="23" viewBox="0 0 168 23" fill="none" xmlns="http://www.w3.org/2000/svg">
<path d="M33.0778 20.0077V3.43477H37.3811L45.1774 15.6119L44.5626 15.7757L44.4508 3.43477H48.335V20.0077H44.1155L36.3472 7.83055L36.8781 7.63943L36.9619 20.0077H33.0778Z" fill="#242953"/>
<path d="M50.6244 20.0077V3.43477H63.0593V6.71113H54.5086V10.9158H62.4725V13.9191H54.5086V20.0077H50.6244Z" fill="#242953"/>
<path d="M69.7254 20.0077V6.68382H64.4161V3.43477H78.9468V6.68382H73.6376V20.0077H69.7254Z" fill="#242953"/>
<path d="M86.0452 20.0077V3.43477H95.0431C96.7197 3.43477 98.0051 3.75331 98.8993 4.39038C99.8121 5.00924 100.269 6.07406 100.269 7.58482C100.269 8.67694 99.9984 9.53243 99.4582 10.1513C98.9365 10.7702 98.1821 11.2161 97.1947 11.4891L98.0051 9.98748V12.5267L97.1109 11.0796C97.8933 11.2252 98.5546 11.4709 99.0949 11.8168C99.6351 12.1444 100.045 12.5904 100.324 13.1546C100.622 13.7007 100.772 14.3742 100.772 15.175C100.772 16.8132 100.259 18.0327 99.2346 18.8336C98.2286 19.6163 96.7197 20.0077 94.7077 20.0077H86.0452ZM94.5401 17.0043C95.3411 17.0043 95.9186 16.8041 96.2726 16.4037C96.6452 16.0032 96.8315 15.4572 96.8315 14.7655C96.8315 14.1284 96.6358 13.6552 96.2446 13.3457C95.8721 13.0363 95.3039 12.8816 94.5401 12.8816H89.9294V17.0043H94.5401ZM94.4562 10.2605C95.1641 10.2605 95.6764 10.0967 95.9931 9.76906C96.3285 9.42322 96.4961 8.95907 96.4961 8.37661C96.4961 7.75774 96.3285 7.28449 95.9931 6.95685C95.6578 6.61102 95.1455 6.4381 94.4562 6.4381H89.9294V10.2605H94.4562Z" fill="#242953"/>
<path d="M111.208 11.7622C111.208 11.0705 111.031 10.5517 110.677 10.2059C110.342 9.84186 109.737 9.65985 108.861 9.65985C108.172 9.65985 107.641 9.78726 107.268 10.0421C106.914 10.2969 106.691 10.6519 106.598 11.1069H102.965C103.151 9.70535 103.775 8.64964 104.837 7.93976C105.899 7.22988 107.268 6.87494 108.945 6.87494C110.715 6.87494 112.158 7.26629 113.276 8.04897C114.412 8.81345 114.981 10.1058 114.981 11.926V20.0077H111.208V11.7622ZM106.933 20.3899C105.61 20.3899 104.53 20.0714 103.691 19.4343C102.872 18.779 102.462 17.787 102.462 16.4583C102.462 15.4208 102.751 14.5562 103.328 13.8645C103.924 13.1728 104.986 12.7087 106.514 12.472C108.06 12.2354 110.184 12.3355 112.885 12.7724L112.55 14.7382C111.059 14.5926 109.867 14.538 108.973 14.5744C108.079 14.6108 107.408 14.7655 106.961 15.0385C106.514 15.2934 106.29 15.712 106.29 16.2945C106.29 16.8041 106.449 17.1773 106.765 17.4139C107.101 17.6505 107.576 17.7688 108.19 17.7688C109.01 17.7688 109.699 17.5959 110.258 17.2501C110.836 16.9042 111.273 16.4492 111.572 15.8849L111.488 18.2876C111.041 18.87 110.463 19.3706 109.755 19.7892C109.066 20.1897 108.125 20.3899 106.933 20.3899Z" fill="#242953"/>
<path d="M116.877 20.0077V7.25719H120.649V10.2059L120.454 9.38682C120.565 9.07738 120.798 8.73154 121.152 8.3493C121.525 7.94886 122.009 7.60302 122.605 7.31179C123.201 7.02056 123.881 6.87494 124.645 6.87494C126.061 6.87494 127.142 7.31179 127.887 8.18549C128.632 9.05918 129.004 10.2605 129.004 11.7895V20.0077H125.232V12.6905C125.232 11.8532 125.036 11.2252 124.645 10.8066C124.273 10.3697 123.714 10.1513 122.969 10.1513C122.466 10.1513 122.046 10.2605 121.711 10.4789C121.376 10.6792 121.115 10.9704 120.929 11.3526C120.742 11.7349 120.649 12.1808 120.649 12.6905V20.0077H116.877Z" fill="#242953"/>
<path d="M130.903 20.0077V3.40747H134.676V13.2365L133.893 13.0727L139.091 7.25719H144.149L134.284 17.1409L134.676 15.9395V20.0077H130.903ZM140.013 20.0077L135.961 14.0556L138.476 11.6803L144.512 20.0077H140.013Z" fill="#242953"/>
<path d="M151.088 20.4445C149.877 20.4445 148.759 20.1988 147.735 19.7073C146.71 19.2159 145.881 18.4605 145.248 17.4412C144.614 16.4219 144.297 15.1386 144.297 13.5915C144.297 12.0625 144.614 10.7975 145.248 9.79636C145.881 8.77705 146.71 8.03077 147.735 7.55752C148.759 7.06607 149.868 6.82034 151.06 6.82034C152.308 6.82034 153.444 7.09337 154.469 7.63943C155.512 8.16728 156.332 9.02278 156.928 10.2059C157.524 11.3708 157.757 12.8725 157.627 14.7109H147.371L147.232 12.5267H155L153.938 13.4277C153.901 12.6814 153.77 12.0443 153.547 11.5164C153.342 10.9704 153.025 10.5608 152.597 10.2878C152.168 9.99658 151.647 9.85097 151.032 9.85097C150.361 9.85097 149.802 10.0148 149.355 10.3424C148.927 10.6701 148.61 11.1251 148.405 11.7076C148.2 12.2718 148.098 12.9089 148.098 13.6188C148.098 14.3286 148.2 14.9657 148.405 15.53C148.61 16.0942 148.936 16.5493 149.383 16.8951C149.83 17.241 150.408 17.4139 151.116 17.4139C151.786 17.4139 152.327 17.2683 152.736 16.977C153.146 16.6858 153.444 16.3036 153.631 15.8303H157.431C157.077 17.3411 156.332 18.4878 155.196 19.2705C154.059 20.0532 152.69 20.4445 151.088 20.4445Z" fill="#242953"/>
<path d="M159.365 20.0077V7.25719H163.11V10.5881L162.886 9.96018C163.24 9.08648 163.65 8.40391 164.116 7.91246C164.6 7.421 165.159 7.10247 165.792 6.95685C166.426 6.81124 167.162 6.82944 168 7.01146V10.8612H167.888C167.087 10.5335 166.314 10.4516 165.569 10.6154C164.842 10.7611 164.256 11.1342 163.808 11.7349C163.361 12.3355 163.138 13.1182 163.138 14.0829V20.0077H159.365Z" fill="#242953"/>
<rect y="9.37036" width="23.5026" height="4.25926" fill="#0066FF"/>
<rect width="11.8709" height="4.30605" transform="matrix(-0.714707 0.699424 -0.714707 -0.699424 22.0073 4.71558)" fill="#00F0FF"/>
<rect width="11.8709" height="4.30605" transform="matrix(-0.714707 0.699424 -0.714707 -0.699424 13.3027 13.2339)" fill="#00F0FF"/>
<path d="M13.9275 0L13.9275 23L9.57516 23L9.57516 -1.86178e-07L13.9275 0Z" fill="#0066FF"/>
</svg>
