<svg width="182" height="177" viewBox="0 0 182 177" fill="none" xmlns="http://www.w3.org/2000/svg">
<g clip-path="url(#clip0_7_45)">
<path d="M91 177C141.258 177 182 137.377 182 88.5C182 39.6228 141.258 0 91 0C40.7421 0 0 39.6228 0 88.5C0 137.377 40.7421 177 91 177Z" fill="url(#paint0_linear_7_45)"/>
<path d="M135.291 50.922L119.046 130.607C119.046 130.607 116.771 136.138 110.515 133.476L73.0132 105.509L59.3632 99.113L36.4 91.6113C36.4 91.6113 32.8808 90.4013 32.5254 87.7394C32.1699 85.0775 36.5066 83.6601 36.5066 83.6601L127.791 48.8478C127.791 48.8132 135.291 45.5982 135.291 50.922Z" fill="white"/>
<path d="M70.0984 129.708C70.0984 129.708 68.9965 129.604 67.6457 125.421C66.2949 121.238 59.3633 99.113 59.3633 99.113L114.496 65.0613C114.496 65.0613 117.696 63.1945 117.554 65.0613C117.554 65.0613 118.122 65.407 116.416 66.9281C114.71 68.4837 73.1199 104.852 73.1199 104.852" fill="#D2E4F0"/>
<path d="M87.3741 116.225L72.5511 129.397C72.5511 129.397 71.3781 130.261 70.1339 129.708L72.9777 105.267" fill="#B5CFE4"/>
</g>
<defs>
<linearGradient id="paint0_linear_7_45" x1="91" y1="0" x2="91" y2="176.354" gradientUnits="userSpaceOnUse">
<stop stop-color="#41BCE7"/>
<stop offset="1" stop-color="#22A6DC"/>
</linearGradient>
<clipPath id="clip0_7_45">
<rect width="182" height="177" fill="white"/>
</clipPath>
</defs>
</svg>
